#!OML:ASF E:\VariousWalksJay\Project 1\Capture day 1\Session 1\Actor2.ASF
:FULLY-SPECIFIED
:DEGREES
1115
root -0.63907 14.65 25.849 203.136 46.2359 -193.402
lowerback 33.7603 -2.53839 4.25938
upperback 14.4518 0.805256 -3.35504
thorax -1.36412 1.81762 -6.04094
lowerneck -8.36027 5.01216 2.249
upperneck -6.30912 6.77562 -5.96302
head -0.274141 3.5509 -2.08295
rclavicle -4.77083e-015 4.05521e-014
rhumerus 48.4233 11.3765 5.74602
rradius 59.6995
rwrist 7.72974
rhand 22.4283 -3.18804
rfingers 7.12502
rthumb 46.7902 -25.9462
lclavicle -4.77083e-015 4.05521e-014
lhumerus 56.0907 -22.4891 -18.1394
lradius 76.7549
lwrist 34.5291
lhand 34.2859 -0.230148
lfingers 7.12502
lthumb 57.5134 15.92
rfemur -101.216 -35.5243 29.0618
rtibia 103.42
rfoot -1.29772 9.44322
rtoes -28.6538
lfemur -83.2427 37.103 -43.3306
ltibia 102.632
lfoot 6.55007 -11.6636
ltoes -15.6411
1116
root -0.785775 14.6556 25.5534 202.818 47.0739 -194.346
lowerback 33.9512 -2.50156 4.34535
upperback 14.6069 0.912081 -3.25428
thorax -1.24923 1.88141 -6.01018
lowerneck -8.17123 4.8953 1.86178
upperneck -6.46138 6.62475 -6.81804
head -0.339637 3.4925 -2.30662
rclavicle -6.52014e-014 -6.44062e-014
rhumerus 49.9043 9.23454 2.086
rradius 58.0898
rwrist 9.05278
rhand 19.7444 -2.93733
rfingers 7.12502
rthumb 44.2969 -26.7086
lclavicle -6.52014e-014 -6.44062e-014
lhumerus 53.113 -20.5128 -17.6344
lradius 78.3932
lwrist 34.4127
lhand 34.6702 -0.519208
lfingers 7.12502
lthumb 57.8495 15.3365
rfemur -103.696 -34.2829 31.8403
rtibia 103.576
rfoot -0.144856 9.97644
rtoes -27.1961
lfemur -83.7278 36.8915 -42.9207
ltibia 102.788
lfoot 5.7239 -11.7812
ltoes -16.5226
1117
root -0.92759 14.657 25.2604 202.635 47.9066 -195.076
lowerback 34.2403 -2.32584 4.53503
upperback 14.7369 1.22518 -3.13321
thorax -1.16869 2.04707 -6.07836
lowerneck -7.85788 4.63996 1.60835
upperneck -6.70777 6.27705 -7.63393
head -0.463564 3.34236 -2.55493
rclavicle -4.92986e-014 7.55382e-015
rhumerus 51.0763 7.32412 -1.98838
rradius 56.5025
rwrist 10.1062
rhand 16.5956 -2.8167
rfingers 7.12502
rthumb 41.3514 -27.6204
lclavicle -4.92986e-014 7.55382e-015
lhumerus 50.4418 -18.3346 -17.2012
lradius 79.9748
lwrist 34.5314
lhand 34.9965 0.0947328
lfingers 7.12502
lthumb 58.1341 15.6952
rfemur -105.666 -32.8823 34.3569
rtibia 103.449
rfoot 1.20128 10.1681
rtoes -25.0822
lfemur -84.2858 36.8535 -42.2519
ltibia 102.726
lfoot 4.88595 -11.82
ltoes -17.4852
1118
root -1.06607 14.6466 24.9713 202.442 48.6496 -195.92
lowerback 34.4493 -2.2215 4.67675
upperback 14.862 1.42437 -3.12268
thorax -1.07876 2.1599 -6.20254
lowerneck -7.57726 4.42997 1.61665
upperneck -6.94314 5.96889 -8.5371
head -0.568767 3.21126 -2.87969
rclavicle -5.88403e-014 -7.196e-014
rhumerus 52.3078 5.57118 -6.55343
rradius 55.1034
rwrist 10.7279
rhand 13.0202 -2.58206
rfingers 7.12502
rthumb 37.9849 -28.3854
lclavicle -5.88403e-014 -7.196e-014
lhumerus 47.7188 -16.0904 -16.7612
lradius 81.1559
lwrist 34.5261
lhand 35.3047 0.406327
lfingers 7.12502
lthumb 58.4023 15.7612
rfemur -107.43 -31.5588 36.5667
rtibia 103.107
rfoot 2.82726 10.0422
rtoes -22.1775
lfemur -84.9361 36.7587 -41.5554
ltibia 102.431
lfoot 4.0203 -11.6761
ltoes -18.1828
1119
root -1.19926 14.634 24.6772 202.098 49.3864 -196.791
lowerback 34.769 -1.9846 5.20643
upperback 15.0142 1.91619 -3.35365
thorax -0.945765 2.45668 -6.88109
lowerneck -7.38397 3.99267 2.57761
upperneck -7.01533 5.29434 -9.59023
head -0.601082 2.86851 -3.44277
rclavicle -1.08139e-013 -3.89618e-014
rhumerus 52.3478 3.84339 -11.5221
rradius 54.2178
rwrist 10.672
rhand 9.3871 -2.59007
rfingers 7.12502
rthumb 34.5448 -29.2512
lclavicle -1.08139e-013 -3.89618e-014
lhumerus 46.0343 -13.4739 -16.4123
lradius 81.9765
lwrist 34.4717
lhand 35.366 1.16343
lfingers 7.12502
lthumb 58.4556 16.4689
rfemur -108.633 -30.3876 38.2966
rtibia 102.483
rfoot 4.80254 9.71283
rtoes -17.8428
lfemur -85.3171 36.7653 -40.6857
ltibia 101.825
lfoot 2.98177 -11.2293
ltoes -18.807
1120
root -1.32969 14.6065 24.3965 201.674 50.021 -197.953
lowerback 35.0231 -1.80304 5.42674
upperback 15.0994 2.22654 -3.50802
thorax -0.887773 2.635 -7.26031
lowerneck -7.15343 3.58657 2.95764
upperneck -7.10567 4.70899 -10.4112
head -0.676076 2.58721 -3.82696
rclavicle 2.54444e-014 5.04913e-014
rhumerus 52.7331 2.56629 -16.9437
rradius 53.3948
rwrist 10.986
rhand 4.86951 -2.25023
rfingers 7.12502
rthumb 30.2455 -29.7928
lclavicle 2.54444e-014 5.04913e-014
lhumerus 44.1803 -10.8718 -15.4767
lradius 82.1189
lwrist 33.8686
lhand 35.9172 1.7299
lfingers 7.12502
lthumb 58.9333 16.5832
rfemur -109.86 -29.2508 39.7186
rtibia 101.682
rfoot 6.57563 9.30611
rtoes -14.9068
lfemur -85.8914 36.66 -39.9722
ltibia 100.924
lfoot 1.86666 -10.4932
ltoes -19.6203
1121
root -1.45491 14.5788 24.1035 200.95 50.7535 -199.29
lowerback 35.3027 -1.83479 5.14247
upperback 15.2657 2.15138 -3.39894
thorax -0.823068 2.5943 -6.96873
lowerneck -7.00493 3.4216 2.06113
upperneck -7.19634 4.54245 -11.2115
head -0.74441 2.55716 -3.94866
rclavicle -1.11319e-013 -3.89618e-014
rhumerus 54.1974 1.74614 -21.0154
rradius 53.2845
rwrist 10.0844
rhand 0.405503 -2.17707
rfingers 7.12502
rthumb 25.9787 -30.4214
lclavicle -1.11319e-013 -3.89618e-014
lhumerus 41.1253 -8.44745 -13.6221
lradius 81.9755
lwrist 33.0346
lhand 36.8759 2.15558
lfingers 7.12502
lthumb 59.7589 16.1865
rfemur -110.556 -28.3522 40.5411
rtibia 100.605
rfoot 8.38114 8.99756
rtoes -10.9941
lfemur -86.0285 36.6242 -39.2203
ltibia 99.6191
lfoot 0.859033 -9.44599
ltoes -18.9335
1122
root -1.57682 14.5425 23.8144 200.016 51.3381 -200.903
lowerback 35.6104 -1.59774 5.3952
upperback 15.4457 2.56906 -3.66996
thorax -0.657572 2.85253 -7.5213
lowerneck -6.94521 2.87456 2.85622
upperneck -7.16428 3.75768 -12.11
head -0.76645 2.16501 -4.45066
rclavicle -1.7175e-013 1.59028e-014
rhumerus 53.9613 0.461828 -25.3065
rradius 53.3873
rwrist 8.82042
rhand -4.19021 -2.10451
rfingers 7.12502
rthumb 21.5713 -30.9231
lclavicle -1.7175e-013 1.59028e-014
lhumerus 40.24 -5.52465 -12.1766
lradius 81.6232
lwrist 31.4674
lhand 36.6867 3.31037
lfingers 7.12502
lthumb 59.5965 17.5074
rfemur -111.093 -27.6902 41.0113
rtibia 99.337
rfoot 9.76851 8.47184
rtoes -8.03366
lfemur -86.0303 36.4666 -38.5351
ltibia 97.9694
lfoot -0.329003 -7.90205
ltoes -19.2467
1123
root -1.69683 14.4937 23.5359 199.037 51.8451 -202.598
lowerback 36.005 -1.69175 4.79405
upperback 15.5688 2.33252 -3.36297
thorax -0.714643 2.69901 -6.80493
lowerneck -6.69979 2.71704 1.0862
upperneck -7.49186 3.66062 -12.6166
head -0.950096 2.22192 -4.30277
rclavicle -7.31528e-014 -5.56597e-015
rhumerus 55.5115 0.413065 -28.24
rradius 53.9327
rwrist 7.24511
rhand -8.74226 -1.87065
rfingers 7.12502
rthumb 17.1945 -31.1299
lclavicle -7.31528e-014 -5.56597e-015
lhumerus 37.3717 -2.92632 -9.6182
lradius 81.1243
lwrist 29.5161
lhand 36.3583 4.89356
lfingers 7.12502
lthumb 59.314 19.3744
rfemur -111.398 -27.0615 41.2497
rtibia 97.8661
rfoot 10.6393 7.81614
rtoes -6.49749
lfemur -86.0359 36.2677 -37.7961
ltibia 95.9816
lfoot -1.35419 -6.21677
ltoes -19.1377
1124
root -1.81066 14.4365 23.2489 197.886 52.2991 -204.452
lowerback 36.3658 -1.61602 4.70697
upperback 15.7209 2.45459 -3.40396
thorax -0.653328 2.77614 -6.84285
lowerneck -6.551 2.34869 0.74489
upperneck -7.65357 3.19105 -13.2684
head -1.06095 2.04395 -4.49293
rclavicle -8.26944e-014 -1.15295e-014
rhumerus 55.6251 0.0174718 -31.2611
rradius 54.6236
rwrist 6.12859
rhand -13.5764 -1.42921
rfingers 7.12502
rthumb 12.5375 -31.0331
lclavicle -8.26944e-014 -1.15295e-014
lhumerus 36.3028 0.143778 -7.1218
lradius 80.3939
lwrist 26.797
lhand 35.9297 5.53742
lfingers 7.12502
lthumb 58.9441 20.3803
rfemur -111.438 -26.7215 41.2225
rtibia 96.3101
rfoot 11.2344 7.1739
rtoes -4.92755
lfemur -85.7905 36.0988 -37.1385
ltibia 93.6732
lfoot -2.45089 -4.33404
ltoes -18.9769
1125
root -1.92175 14.3672 22.9563 196.497 52.6087 -206.647
lowerback 36.559 -1.66567 4.59368
upperback 15.9409 2.41944 -3.49163
thorax -0.483102 2.78844 -6.86082
lowerneck -6.52023 2.03017 0.30193
upperneck -7.79903 2.80531 -13.8438
head -1.14415 1.91075 -4.63198
rclavicle -9.54166e-014 -8.34896e-015
rhumerus 55.7438 -0.182863 -33.816
rradius 55.3552
rwrist 5.35132
rhand -18.5811 -0.704174
rfingers 7.12502
rthumb 7.70947 -30.5436
lclavicle -9.54166e-014 -8.34896e-015
lhumerus 35.4825 3.39572 -4.21112
lradius 79.4768
lwrist 23.2839
lhand 34.6981 5.33704
lfingers 7.12502
lthumb 57.8739 21.1711
rfemur -111.52 -26.6982 41.0651
rtibia 95.0129
rfoot 10.6537 6.7823
rtoes 3.80083
lfemur -85.4252 35.7735 -36.6542
ltibia 91.0873
lfoot -3.54046 -2.41542
ltoes -18.9892
1126
root -2.02931 14.2889 22.6649 195.081 52.7669 -209.01
lowerback 36.5812 -1.72857 4.38305
upperback 16.1363 2.32023 -3.48834
thorax -0.296107 2.75287 -6.70705
lowerneck -6.33946 1.78897 -0.379029
upperneck -8.0798 2.52143 -14.3692
head -1.2957 1.85444 -4.71068
rclavicle 6.67916e-014 5.85421e-014
rhumerus 55.8952 -0.182796 -36.052
rradius 55.9286
rwrist 5.58945
rhand -23.6504 0.262385
rfingers 7.12502
rthumb 2.81496 -29.6988
lclavicle 6.67916e-014 5.85421e-014
lhumerus 34.9193 6.66236 -0.881895
lradius 78.7194
lwrist 18.967
lhand 32.8906 4.44592
lfingers 7.12502
lthumb 56.2852 21.6123
rfemur -111.646 -26.9384 40.7202
rtibia 94.172
rfoot 5.98081 6.76702
rtoes 9.63278
lfemur -85.0458 35.3357 -36.3203
ltibia 88.1518
lfoot -4.57647 -0.51215
ltoes -19.001
1127
root -2.1341 14.2084 22.3791 193.682 53.0209 -211.218
lowerback 36.7723 -1.7266 4.22956
upperback 16.3204 2.3257 -3.57525
thorax -0.158741 2.77672 -6.7172
lowerneck -6.1834 1.54822 -0.799593
upperneck -8.35236 2.21646 -14.7547
head -1.44068 1.77433 -4.78918
rclavicle -4.77083e-014 6.57232e-014
rhumerus 55.7508 -0.1568 -37.9118
rradius 56.3967
rwrist 6.24737
rhand -28.5919 1.39392
rfingers 7.12502
rthumb -1.95758 -28.5768
lclavicle -4.77083e-014 6.57232e-014
lhumerus 34.9775 9.9624 2.80487
lradius 78.1861
lwrist 14.0746
lhand 30.0101 4.01005
lfingers 7.12502
lthumb 53.716 23.0383
rfemur -111.607 -27.2073 40.261
rtibia 93.9821
rfoot -2.33509 7.51628
rtoes 1.66373
lfemur -84.495 35.1078 -35.895
ltibia 84.8899
lfoot -5.32407 1.38174
ltoes -19.2433
1128
root -2.23551 14.1268 22.104 192.209 53.2405 -213.618
lowerback 36.887 -1.65338 3.79611
upperback 16.4768 2.31872 -3.57825
thorax -0.0364262 2.76697 -6.48526
lowerneck -5.99831 1.37854 -1.40207
upperneck -8.6818 2.00968 -15.0983
head -1.60496 1.75849 -4.81756
rclavicle 2.29e-013 1.77713e-013
rhumerus 55.7881 0.0869664 -39.3743
rradius 56.501
rwrist 7.4536
rhand -33.5629 2.37209
rfingers 7.12502
rthumb -6.75765 -27.5001
lclavicle 2.29e-013 1.77713e-013
lhumerus 35.35 13.4392 7.17196
lradius 77.6711
lwrist 9.57213
lhand 27.3859 2.75835
lfingers 7.12502
lthumb 51.3421 23.2468
rfemur -111.49 -27.6545 38.9905
rtibia 94.138
rfoot -8.85601 6.57351
rtoes -3.84694
lfemur -83.8826 34.8513 -35.6502
ltibia 81.2898
lfoot -5.94756 3.14607
ltoes -19.8187
